<?xml version="1.0" encoding="UTF-8"?>
<svg width="48px" height="56px" viewBox="0 0 48 56" version="1.1" xmlns="http://www.w3.org/2000/svg">
  <!-- Generator: Sketch 48.2 (47327) - http://www.bohemiancoding.com/sketch -->
  <title>ic_faq</title>
  <desc>Created with Sketch.</desc>
  <defs></defs>
  <g id="menu" stroke="none" stroke-width="1" fill="none" fill-rule="evenodd"
     transform="translate(-1327.000000, -42.000000)">
    <g id="ic_faq" transform="translate(1327.000000, 42.000000)" fill="#BDC1C9" fill-rule="nonzero">
      <path
        d="M24,0 C10.7655273,0 0,10.5265781 0,23.6087031 C0,31.1151094 3.60229091,38.1160937 9.69589091,42.5671094 L9.69589091,53.8125 C9.69589091,54.6807187 10.2079636,55.4666875 11.0008364,55.8154844 C11.7890182,56.1625312 12.714,56.0133437 13.3546909,55.4225 L22.3158545,47.1586719 C22.8798545,47.1975 23.4433091,47.2171875 24,47.2171875 C37.2344727,47.2171875 48,36.6906094 48,23.6084844 C48,10.5142187 37.2229091,0 24,0 Z M24,42.8422969 C23.2705091,42.8422969 22.5255273,42.8011719 21.7856727,42.7200156 C21.1598182,42.6506719 20.5348364,42.8570625 20.0713091,43.2845 L14.0595273,48.8283906 L14.0595273,41.4208594 C14.0595273,40.6835625 13.6890545,39.9958125 13.074,39.5914531 C7.61978182,36.00625 4.36363636,30.0314219 4.36363636,23.6087031 C4.36363636,13.0031562 13.1724,4.375 24,4.375 C34.8276,4.375 43.6363636,13.0031562 43.6363636,23.6087031 C43.6363636,34.2140313 34.8274909,42.8422969 24,42.8422969 Z"
        id="Shape"></path>
      <path
        d="M25.0909091,10.8146719 L17.4545455,10.8146719 C16.2495273,10.8146719 15.2727273,11.7940156 15.2727273,13.0021719 C15.2727273,14.2103281 16.2495273,15.1896719 17.4545455,15.1896719 L25.0909091,15.1896719 C26.8954909,15.1896719 28.3636364,16.6616406 28.3636364,18.4709219 C28.3636364,20.2802031 26.8954909,21.7521719 25.0909091,21.7521719 L22.9090909,21.7521719 C21.7040727,21.7521719 20.7272727,22.7315156 20.7272727,23.9396719 L20.7272727,27.0889063 C20.7272727,28.2970625 21.7040727,29.2764063 22.9090909,29.2764063 C24.1141091,29.2764063 25.0909091,28.2970625 25.0909091,27.0889063 L25.0909091,26.1271719 C29.3016,26.1271719 32.7272727,22.6926875 32.7272727,18.4709219 C32.7272727,14.2492656 29.3016,10.8146719 25.0909091,10.8146719 Z"
        id="Shape"></path>
      <ellipse id="Oval" cx="22.9090909" cy="34.908125" rx="2.94545455" ry="2.953125"></ellipse>
    </g>
  </g>
</svg>
