<?xml version="1.0" encoding="UTF-8"?>
<svg width="33px" height="42px" viewBox="0 0 33 42" version="1.1" xmlns="http://www.w3.org/2000/svg">
  <!-- Generator: Sketch 48.2 (47327) - http://www.bohemiancoding.com/sketch -->
  <title>ic_lock</title>
  <desc>Created with Sketch.</desc>
  <defs></defs>
  <g id="login" stroke="none" stroke-width="1" fill="none" fill-rule="evenodd"
     transform="translate(-142.000000, -1125.000000)">
    <g id="password" transform="translate(115.000000, 1096.663079)" fill="#828282" fill-rule="nonzero">
      <g id="ic_lock" transform="translate(27.000000, 29.063509)">
        <path
          d="M14.3336875,28.1574429 L13.7554141,32.9662048 C13.7267969,33.2054111 13.8099844,33.4454916 13.9836641,33.6251745 C14.1573437,33.8047779 14.4062187,33.9074538 14.6666953,33.9074538 L18.3333906,33.9074538 C18.5938672,33.9074538 18.8427422,33.8047779 19.0164219,33.6251745 C19.1901016,33.4455711 19.273375,33.2054906 19.2446719,32.9662048 L18.6663984,28.1574429 C19.6054375,27.5258111 20.1666953,26.5266281 20.1666953,25.4305705 C20.1666953,23.5605494 18.5222813,22.0398013 16.5,22.0398013 C14.4777187,22.0398013 12.8333047,23.5605494 12.8333047,25.4305705 C12.8333047,26.5266281 13.3946484,27.5258111 14.3336875,28.1574429 Z M16.5,23.7352256 C17.510625,23.7352256 18.3333047,24.495997 18.3333047,25.4305705 C18.3333047,26.0804011 17.9340391,26.6623638 17.2913125,26.9504444 C16.9412891,27.1077166 16.7363281,27.450473 16.7792969,27.8072163 L17.3092734,32.2120295 L15.6908125,32.2120295 L16.2207891,27.8072163 C16.2637578,27.4503936 16.0587969,27.1077166 15.7087734,26.9504444 C15.0660469,26.6623638 14.6667812,26.0804011 14.6667812,25.4305705 C14.6666953,24.495997 15.489375,23.7352256 16.5,23.7352256 Z"
          id="Shape"></path>
        <path
          d="M32.0833047,15.2583423 L29.3333047,15.2583423 L29.3333047,11.8675731 C29.3333047,5.32373099 23.5764375,0 16.5,0 C9.4235625,0 3.66669531,5.32373099 3.66669531,11.8675731 L3.66669531,15.2583423 L0.916695313,15.2583423 C0.410007813,15.2583423 0,15.6374962 0,16.1060545 L0,37.2982231 C0,39.1682442 1.64441406,40.6889128 3.66669531,40.6889128 L29.3333906,40.6889128 C31.3555859,40.6889128 33,39.1682442 33,37.2981436 L33,16.1060545 C33,15.6374962 32.5899922,15.2583423 32.0833047,15.2583423 Z M5.5,11.8675731 C5.5,6.25830446 10.4342734,1.69534488 16.5,1.69534488 C22.5657266,1.69534488 27.5,6.25830446 27.5,11.8675731 L27.5,15.2583423 L25.6666953,15.2583423 L25.6666953,11.8675731 C25.6666953,7.19367263 21.5542422,3.39068975 16.5,3.39068975 C11.4457578,3.39068975 7.33330469,7.1937521 7.33330469,11.8675731 L7.33330469,15.2583423 L5.5,15.2583423 L5.5,11.8675731 Z M23.8333047,11.8675731 L23.8333047,15.2583423 L9.16669531,15.2583423 L9.16669531,11.8675731 C9.16669531,8.12832557 12.4564687,5.0861141 16.5,5.0861141 C20.5435313,5.0861141 23.8333047,8.12832557 23.8333047,11.8675731 Z M31.1666953,37.2981436 C31.1666953,38.2327171 30.3440156,38.9934885 29.3333906,38.9934885 L3.66669531,38.9934885 C2.65607031,38.9934885 1.83339062,38.2327171 1.83339062,37.2981436 L1.83339062,16.9536872 L31.1666953,16.9536872 L31.1666953,37.2981436 Z"
          id="Shape"></path>
      </g>
    </g>
  </g>
</svg>
