<?xml version="1.0" encoding="UTF-8"?>
<svg width="33px" height="30px" viewBox="0 0 33 30" version="1.1" xmlns="http://www.w3.org/2000/svg">
  <!-- Generator: Sketch 48.2 (47327) - http://www.bohemiancoding.com/sketch -->
  <title>ic_user</title>
  <desc>Created with Sketch.</desc>
  <defs></defs>
  <g id="login" stroke="none" stroke-width="1" fill="none" fill-rule="evenodd"
     transform="translate(-142.000000, -994.000000)">
    <g id="username" transform="translate(115.000000, 954.251884)" fill="#828282" fill-rule="nonzero">
      <g id="ic_user" transform="translate(27.000000, 40.688913)">
        <path
          d="M16.4292021,16.2906371 C21.3011489,16.2906371 25.2527819,12.6421403 25.2527819,8.14404904 C25.2527819,3.6459578 21.3010904,0.0224188779 16.4292021,0.0224188779 C11.5573138,0.0224188779 7.60562234,3.67091568 7.60562234,8.14404904 C7.60562234,12.6171824 11.5572553,16.2906371 16.4292021,16.2906371 Z M16.4292021,2.14654003 C20.0019202,2.14654003 22.9251117,4.84539478 22.9251117,8.14404904 C22.9251117,11.4427033 20.0019202,14.141504 16.4292021,14.141504 C12.856484,14.141504 9.93329255,11.4426493 9.93329255,8.14399502 C9.93329255,4.84534075 12.8564255,2.14654003 16.4292021,2.14654003 Z"
          id="Shape"></path>
        <path
          d="M1.16383511,29.0102981 L31.8028138,29.0102981 C32.4523989,29.0102981 32.9666489,28.5355041 32.9666489,27.9357586 C32.9666489,22.313104 28.0135479,17.7150191 21.8965532,17.7150191 L11.0700957,17.7150191 C4.98019149,17.7150191 0,22.2880921 0,27.9357586 C0,28.5355041 0.51425,29.0102981 1.16383511,29.0102981 Z M11.0700957,19.8640982 L21.8965532,19.8640982 C26.3354043,19.8640982 29.9893351,22.9128495 30.557766,26.861165 L2.40888298,26.861165 C2.97725532,22.9378614 6.63124468,19.8640982 11.0700957,19.8640982 Z"
          id="Shape"></path>
      </g>
    </g>
  </g>
</svg>
