<?xml version="1.0" encoding="UTF-8"?>
<svg width="55px" height="68px" viewBox="0 0 55 68" version="1.1" xmlns="http://www.w3.org/2000/svg">
    <!-- Generator: Sketch 48.2 (47327) - http://www.bohemiancoding.com/sketch -->
    <title>ic_bell</title>
    <desc>Created with Sketch.</desc>
    <defs></defs>
    <g id="menu" stroke="none" stroke-width="1" fill="none" fill-rule="evenodd" transform="translate(-1029.000000, -32.000000)">
        <g id="Notifications" transform="translate(921.000000, 0.000000)" fill="#BDC1C9">
            <g id="ic_bell" transform="translate(135.824877, 72.169242) rotate(-45.000000) translate(-135.824877, -72.169242) translate(105.324877, 41.669242)">
                <path d="M54.6904413,10.5347986 C53.3940406,11.8311992 51.2827596,11.8311992 49.9740123,10.5347986 C48.6776116,9.23839793 48.6776116,7.12711688 49.9740123,5.81836956 C51.2704129,4.52196892 53.381694,4.52196892 54.6904413,5.81836956 C55.9868419,7.12711688 55.9868419,9.23839793 54.6904413,10.5347986 L54.6904413,10.5347986 Z M49.7270788,27.3386203 C47.9738513,31.7710758 44.2575027,35.8454778 40.8621677,39.2408129 C36.9729658,43.1300148 35.6271785,48.179804 35.2444316,52.1183926 L8.37807156,25.2520326 C12.3166602,24.8692857 17.3664494,23.5234984 21.2556513,19.6342964 C24.6509863,16.2389614 28.7253883,12.5226129 33.1578439,10.7693854 C38.1829397,8.78157104 42.4425418,9.78165153 46.5786772,13.9177869 C50.7148126,18.0539223 51.7148931,22.3135244 49.7270788,27.3386203 L49.7270788,27.3386203 Z M14.0575411,46.4512698 C11.4153531,43.8090818 11.0326062,39.7346798 12.9463405,36.6973983 L23.8237592,47.574817 C20.7617844,49.4762046 16.699729,49.1058044 14.0575411,46.4512698 L14.0575411,46.4512698 Z M58.1104696,2.39834119 C54.9126814,-0.799447064 49.7394255,-0.799447064 46.5539839,2.39834119 C45.41809,3.53423509 44.6896363,4.92940912 44.3562761,6.38631651 C43.1216088,5.80602289 41.8499015,5.39858269 40.5535009,5.1639959 C37.6149928,4.63308897 34.5283246,5.00348916 31.379923,6.23815644 C26.1202404,8.31239747 21.5766648,12.4361862 17.8232763,16.1895747 C12.2672735,21.7455775 2.9084955,20.3750968 2.82206879,20.3504035 C1.78494828,20.17755 0.747827762,20.708457 0.266307523,21.6468041 C-0.215212717,22.5851512 -0.0300126248,23.7333918 0.710787744,24.4741922 L9.41519207,33.1785965 C5.6371102,38.178999 6.01985705,45.3400692 10.588126,49.8959915 C15.1440483,54.4519138 22.3051185,54.8470073 27.305521,51.0689254 L36.0099253,59.7733297 C36.7507257,60.5141301 37.8989662,60.6993302 38.8373134,60.21781 C39.7756605,59.7362897 40.3065674,58.7115159 40.133714,57.6620487 C40.133714,57.6373553 39.7756605,55.2667942 40.1213674,52.217166 C40.5781942,48.1921506 41.9857149,44.969669 44.2945428,42.6608412 C48.0479313,38.9074527 52.17172,34.3638771 54.245961,29.1041945 C55.492975,25.9557929 55.8510285,22.8691247 55.3201216,19.9306166 C55.0855348,18.6342159 54.6780946,17.3625086 54.097801,16.1278414 C55.567055,15.8068279 56.9498824,15.0660275 58.0857763,13.9301336 C61.3082579,10.7693854 61.3082579,5.59612945 58.1104696,2.39834119 L58.1104696,2.39834119 L58.1104696,2.39834119 Z" id="Shape"></path>
            </g>
        </g>
    </g>
</svg>
