<?xml version="1.0" encoding="UTF-8"?>
<svg width="38px" height="38px" viewBox="0 0 38 38" version="1.1" xmlns="http://www.w3.org/2000/svg">
  <!-- Generator: Sketch 48.2 (47327) - http://www.bohemiancoding.com/sketch -->
  <title>ic_close</title>
  <desc>Created with Sketch.</desc>
  <defs></defs>
  <g id="accueil_menu" stroke="none" stroke-width="1" fill="none" fill-rule="evenodd"
     transform="translate(-599.000000, -54.000000)">
    <g id="menu" transform="translate(-51.000000, -199.000000)" fill="#1E201D" fill-rule="nonzero">
      <g id="ic_close" transform="translate(633.000000, 236.000000)">
        <path
          d="M12.7675884,37.7793538 C11.7827664,37.7793538 11,36.9715685 11,35.987279 C11,35.0029894 11.7827664,34.2206462 12.7675884,34.2206462 L34.2061603,34.2206462 L34.2061603,12.7920748 C34.2077513,11.8077853 35.0159735,11 36.0007955,11 C36.9856175,11 37.7683839,11.8077853 37.7683839,12.7920748 L37.7683839,34.2206462 L59.2069558,34.2206462 C60.1917778,34.2206462 61,35.0029894 61,35.987279 C61,36.9715685 60.1917778,37.7793538 59.2069558,37.7793538 L37.7683839,37.7793538 L37.7683839,59.2079252 C37.7683839,60.1922147 36.9856175,61 36.0007955,61 C35.0159735,61 34.2077513,60.1922147 34.2077513,59.2079252 L34.2077513,37.7793538 L12.7675884,37.7793538 Z"
          id="Shape"
          transform="translate(36.000000, 36.000000) rotate(45.000000) translate(-36.000000, -36.000000) "></path>
      </g>
    </g>
  </g>
</svg>
