<?xml version="1.0" encoding="UTF-8"?>
<svg width="108px" height="108px" viewBox="0 0 108 108" version="1.1" xmlns="http://www.w3.org/2000/svg">
  <!-- Generator: Sketch 48.2 (47327) - http://www.bohemiancoding.com/sketch -->
  <title>ic_doc</title>
  <desc>Created with Sketch.</desc>
  <defs></defs>
  <g id="sinistre_ajout_1-2" stroke="none" stroke-width="1" fill="none" fill-rule="evenodd"
     transform="translate(-244.000000, -1186.000000)">
    <g id="Doc" transform="translate(213.000000, 1186.000000)">
      <g id="ic_doc" transform="translate(31.000000, 0.000000)">
        <circle id="Oval-Copy" fill="#4A4A4A" cx="54" cy="54" r="54"></circle>
        <g id="file" transform="translate(38.000000, 32.000000)" fill="#FFFFFF" fill-rule="nonzero">
          <path
            d="M23.1829043,0 L0.352173913,0 L0.352173913,42.2608696 L33.4565217,42.2608696 L33.4565217,10.2736174 L23.1829043,0 Z M8.1,9.86086957 L15.1434783,9.86086957 C15.5322783,9.86086957 15.8478261,10.175713 15.8478261,10.5652174 C15.8478261,10.9547217 15.5322783,11.2695652 15.1434783,11.2695652 L8.1,11.2695652 C7.7112,11.2695652 7.39565217,10.9547217 7.39565217,10.5652174 C7.39565217,10.175713 7.7112,9.86086957 8.1,9.86086957 Z M25.7086957,33.8086957 L8.1,33.8086957 C7.7112,33.8086957 7.39565217,33.4938522 7.39565217,33.1043478 C7.39565217,32.7148435 7.7112,32.4 8.1,32.4 L25.7086957,32.4 C26.0974957,32.4 26.4130435,32.7148435 26.4130435,33.1043478 C26.4130435,33.4938522 26.0974957,33.8086957 25.7086957,33.8086957 Z M25.7086957,28.173913 L8.1,28.173913 C7.7112,28.173913 7.39565217,27.8590696 7.39565217,27.4695652 C7.39565217,27.0800609 7.7112,26.7652174 8.1,26.7652174 L25.7086957,26.7652174 C26.0974957,26.7652174 26.4130435,27.0800609 26.4130435,27.4695652 C26.4130435,27.8590696 26.0974957,28.173913 25.7086957,28.173913 Z M25.7086957,22.5391304 L8.1,22.5391304 C7.7112,22.5391304 7.39565217,22.224287 7.39565217,21.8347826 C7.39565217,21.4452783 7.7112,21.1304348 8.1,21.1304348 L25.7086957,21.1304348 C26.0974957,21.1304348 26.4130435,21.4452783 26.4130435,21.8347826 C26.4130435,22.224287 26.0974957,22.5391304 25.7086957,22.5391304 Z M25.7086957,16.9043478 L8.1,16.9043478 C7.7112,16.9043478 7.39565217,16.5895043 7.39565217,16.2 C7.39565217,15.8104957 7.7112,15.4956522 8.1,15.4956522 L25.7086957,15.4956522 C26.0974957,15.4956522 26.4130435,15.8104957 26.4130435,16.2 C26.4130435,16.5895043 26.0974957,16.9043478 25.7086957,16.9043478 Z M22.1869565,11.2695652 L22.1869565,1.40869565 L32.0478261,11.2695652 L22.1869565,11.2695652 Z"
            id="Shape"></path>
        </g>
      </g>
    </g>
  </g>
</svg>
