<?xml version="1.0" encoding="UTF-8"?>
<svg width="63px" height="46px" viewBox="0 0 63 46" version="1.1" xmlns="http://www.w3.org/2000/svg">
  <!-- Generator: Sketch 48.2 (47327) - http://www.bohemiancoding.com/sketch -->
  <title>ic_menu</title>
  <desc>Created with Sketch.</desc>
  <defs></defs>
  <g id="header" stroke="none" stroke-width="1" fill="none" fill-rule="evenodd"
     transform="translate(-60.000000, -53.000000)">
    <g id="ic_menu" transform="translate(60.000000, 53.000000)" fill="#000000" fill-rule="nonzero">
      <path
        d="M60.628444,0 C61.5107474,0 62.2239293,0.757596542 62.2239293,1.69106371 C62.2239293,2.62453088 61.5107474,3.38212742 60.628444,3.38212742 L22.3367951,3.38212742 C21.4544917,3.38212742 20.7413098,2.62453088 20.7413098,1.69106371 C20.7413098,0.757596542 21.4544917,0 22.3367951,0 L60.628444,0 Z M59.8307013,21.2127032 C61.1541564,21.2127032 62.2239293,22.0612113 62.2239293,23.1066945 C62.2239293,24.1521778 61.1541564,25.0006859 59.8307013,25.0006859 L2.39322805,25.0006859 C1.06977294,25.0006859 0,24.1521778 0,23.1066945 C0,22.0612113 1.06977294,21.2127032 2.39322805,21.2127032 L59.8307013,21.2127032 Z M44.0353961,42.4254064 C44.9176995,42.4254064 45.6308815,43.1830029 45.6308815,44.1164701 C45.6308815,45.0499372 44.9176995,45.8075338 44.0353961,45.8075338 L5.74374732,45.8075338 C4.86144391,45.8075338 4.14826196,45.0499372 4.14826196,44.1164701 C4.14826196,43.1830029 4.86144391,42.4254064 5.74374732,42.4254064 L44.0353961,42.4254064 Z"
        id="Shape-Copy"></path>
    </g>
  </g>
</svg>
