<?xml version="1.0" encoding="UTF-8"?>
<svg width="100px" height="100px" viewBox="0 0 100 100" version="1.1" xmlns="http://www.w3.org/2000/svg">
  <!-- Generator: Sketch 48.2 (47327) - http://www.bohemiancoding.com/sketch -->
  <title>ic_phone</title>
  <desc>Created with Sketch.</desc>
  <defs></defs>
  <g id="map_detail_1-4" stroke="none" stroke-width="1" fill="none" fill-rule="evenodd"
     transform="translate(-885.000000, -1709.000000)">
    <g id="custom" transform="translate(0.000000, 467.000000)" fill="#1B7E87" fill-rule="nonzero">
      <g id="detail" transform="translate(104.000000, 1041.000000)">
        <g id="ic_phone" transform="translate(781.000000, 201.000000)">
          <path
            d="M50.0002061,0 C22.3878321,0 0,22.3877398 0,50 C0,77.611848 22.3878321,100 50.0002061,100 C77.6125801,100 100,77.6116419 100,50 C100.000206,22.3877398 77.6125801,0 50.0002061,0 Z M76.4036191,72.9555328 L72.4001979,76.9597619 C71.6854558,77.6734706 69.5925476,78.1188429 69.5253602,78.1188429 C56.8603285,78.2293101 44.6658148,73.2545774 35.705983,64.2939581 C26.7216257,55.3044855 21.7411018,43.0665359 21.8748583,30.3588947 C21.8748583,30.353124 22.3332165,28.3201982 23.0473403,27.6128785 L27.0505554,23.6090616 C28.5154881,22.1373338 31.3295274,21.4722637 33.3008388,22.1317692 L34.1429484,22.4126773 C36.1084891,23.0715646 38.1721317,25.2448414 38.7151955,27.247059 L40.7289627,34.6380551 C41.2720265,36.6460434 40.5395602,39.5027328 39.0750397,40.9676595 L36.4019703,43.6411301 C39.0264009,53.3568832 46.6496981,60.9815916 56.36714,63.6124004 L59.0391789,60.9383115 C60.5109128,59.4665837 63.3665835,58.7347386 65.3702521,59.2769758 L72.7602481,61.2979481 C74.7628862,61.848223 76.9357598,63.8988731 77.5944436,65.8637874 L77.8753529,66.7180531 C78.5282661,68.6837918 77.8683457,71.4972012 76.4036191,72.9555328 Z"
            id="Shape"></path>
        </g>
      </g>
    </g>
  </g>
</svg>
