<?xml version="1.0" encoding="UTF-8"?>
<svg width="43px" height="43px" viewBox="0 0 43 43" version="1.1" xmlns="http://www.w3.org/2000/svg">
  <!-- Generator: Sketch 48.2 (47327) - http://www.bohemiancoding.com/sketch -->
  <title>question</title>
  <desc>Created with Sketch.</desc>
  <defs></defs>
  <g id="accueil_menu" stroke="none" stroke-width="1" fill="none" fill-rule="evenodd"
     transform="translate(-66.000000, -982.000000)">
    <g id="menu" transform="translate(-51.000000, -199.000000)" fill="#4A4A4A" fill-rule="nonzero">
      <g id="icons" transform="translate(112.000000, 714.000000)">
        <g id="question" transform="translate(5.000000, 467.000000)">
          <rect id="Rectangle-path" x="19.3348946" y="30.0765363" width="4.29667681" height="4.29667681"></rect>
          <path
            d="M21.4831827,0 C9.61840515,0 0,9.61840515 0,21.4831827 C0,33.3479602 9.61840515,42.9663653 21.4831827,42.9663653 C33.3479602,42.9663653 42.9663653,33.3479602 42.9663653,21.4831827 C42.9663653,9.61840515 33.3480609,0 21.4831827,0 Z M21.4831827,39.0779368 C11.7658876,39.0779368 3.88842857,31.2004778 3.88842857,21.4831827 C3.88842857,11.7658876 11.7658876,3.88842857 21.4831827,3.88842857 C31.1955433,3.90021077 39.0660539,11.7707213 39.0779368,21.4831827 C39.0779368,31.2005785 31.2005785,39.0779368 21.4831827,39.0779368 Z"
            id="Shape"></path>
          <path
            d="M29.8401874,15.1456674 C28.7350773,10.5301663 24.097623,7.68451288 19.4821218,8.78962295 C15.6017494,9.71870492 12.8714005,13.1965691 12.8899297,17.1866066 L17.1866066,17.1866066 C17.3883138,14.8136511 19.4754754,13.0534707 21.8484309,13.255178 C24.2213864,13.4568852 25.9815667,15.5440468 25.7798595,17.9170023 C25.3409977,20.0522998 23.4254333,21.5593138 21.2469344,21.4831827 C20.1909672,21.4831827 19.3348946,22.3392553 19.3348946,23.3952225 L19.3348946,27.9281475 L23.6315714,27.9281475 L23.6315714,25.4790609 C28.1752717,24.3073864 30.9390539,19.7075948 29.8401874,15.1456674 Z"
            id="Shape"></path>
        </g>
      </g>
    </g>
  </g>
</svg>
