<?xml version="1.0" encoding="UTF-8"?>
<svg width="41px" height="41px" viewBox="0 0 41 41" version="1.1" xmlns="http://www.w3.org/2000/svg">
  <!-- Generator: Sketch 48.2 (47327) - http://www.bohemiancoding.com/sketch -->
  <title>ic_settings</title>
  <desc>Created with Sketch.</desc>
  <defs></defs>
  <g id="accueil_menu" stroke="none" stroke-width="1" fill="none" fill-rule="evenodd"
     transform="translate(-67.000000, -1075.000000)">
    <g id="menu" transform="translate(-51.000000, -199.000000)" fill="#4A4A4A" fill-rule="nonzero">
      <g id="icons" transform="translate(112.000000, 714.000000)">
        <g id="ic_settings" transform="translate(2.000000, 556.000000)">
          <path
            d="M42.8087387,20.2052327 L39.9438538,19.7192226 C39.6454282,18.7557287 39.2617383,17.8263409 38.7927839,16.9395855 L40.4810197,14.5777467 C41.1972409,13.5716204 41.0863972,12.1988549 40.2081735,11.3291525 L37.6672934,8.78825731 C37.1898125,8.31077365 36.5588557,8.04645234 35.8852667,8.04645234 C35.3566272,8.04645234 34.853567,8.20845572 34.4272448,8.51540951 L32.0568936,10.2036553 C31.1360377,9.71764515 30.1725496,9.31689994 29.1749557,9.01847265 L28.6974749,6.18767666 C28.4928402,4.96838802 27.4440877,4.08163265 26.2077534,4.08163265 L22.6181207,4.08163265 C21.3817864,4.08163265 20.3330338,4.96838802 20.1283992,6.18767666 L19.6338655,9.0866846 C18.6789038,9.38511189 17.7495215,9.77733061 16.8627714,10.2548143 L14.5179994,8.56656847 C14.0916772,8.25961469 13.5800906,8.0976113 13.0514511,8.0976113 C12.3778621,8.0976113 11.7383789,8.36193262 11.2694245,8.83941628 L8.72001788,11.3803115 C7.85032065,12.2500139 7.73095044,13.6227794 8.44717169,14.6289057 L10.1524604,17.0248505 C9.68350599,17.9201323 9.30834248,18.8495202 9.0184434,19.813014 L6.18766418,20.2904976 C4.96838277,20.4951335 4.08163265,21.5438923 4.08163265,22.7802339 L4.08163265,26.3698878 C4.08163265,27.6062295 4.96838277,28.6549882 6.18766418,28.8596241 L9.08665495,29.3541607 C9.38508047,30.309128 9.77729687,31.2385159 10.2547777,32.1252712 L8.57506834,34.4615306 C7.8588471,35.4676569 7.96969086,36.8404224 8.84791453,37.7101248 L11.3887947,40.25102 C11.8662755,40.7285036 12.4972323,40.992825 13.1708214,40.992825 C13.6994609,40.992825 14.202521,40.8308216 14.6288432,40.5238678 L17.0247738,38.818569 C17.8859446,39.2704732 18.7897476,39.6371124 19.7191299,39.9270132 L20.1966107,42.7919152 C20.4012454,44.0112038 21.4499979,44.8979592 22.6863322,44.8979592 L26.2844914,44.8979592 C27.5208257,44.8979592 28.5695782,44.0112038 28.7742128,42.7919152 L29.2602201,39.9270132 C30.2237082,39.6285859 31.1530906,39.2448937 32.0398407,38.7759365 L34.4016655,40.4641823 C34.8279877,40.7711361 35.3395743,40.9331395 35.8682138,40.9331395 C36.5418028,40.9331395 37.1727596,40.6688182 37.6502405,40.1913345 L40.1911206,37.6504393 C41.0608178,36.7807369 41.180188,35.4079714 40.4639668,34.4018451 L38.775731,32.0314798 C39.2446854,31.136198 39.6369018,30.2068101 39.9268009,29.2518428 L42.7916859,28.7743591 C44.0109673,28.5697233 44.8977174,27.5209645 44.8977174,26.2846229 L44.8977174,22.6949689 C44.9147703,21.4586273 44.0280202,20.4098686 42.8087387,20.2052327 Z M42.6126305,26.2846229 C42.6126305,26.3954673 42.5358926,26.4892587 42.4250488,26.5063117 L38.8439425,27.1031663 C38.392041,27.1799048 38.0339304,27.512438 37.9230867,27.9472892 C37.5990818,29.2006838 37.1045481,30.4029195 36.4394855,31.5198902 C36.2092715,31.9121089 36.2263244,32.3981191 36.4906442,32.7732848 L38.5966757,35.7405047 C38.6563608,35.8257696 38.6478343,35.953667 38.5710964,36.0304055 L36.0302162,38.5713007 C35.9705311,38.6309861 35.910846,38.6395126 35.8682138,38.6395126 C35.8170551,38.6395126 35.7744229,38.6224596 35.7403171,38.5968802 L32.7816413,36.4908362 C32.4150042,36.2265148 31.9204705,36.2094619 31.5282541,36.4396772 C30.41129,37.1047437 29.2090615,37.5992804 27.9556743,37.9232871 C27.5122992,38.0341316 27.1797679,38.4007708 27.1115564,38.8441485 L26.5061789,42.4252759 C26.489126,42.5361204 26.3953351,42.6128588 26.2844914,42.6128588 L22.6948587,42.6128588 C22.5840149,42.6128588 22.490224,42.5361204 22.4731711,42.4252759 L21.8763201,38.8441485 C21.7995821,38.3922443 21.4670508,38.0341316 21.0322022,37.9232871 C19.8129208,37.6078069 18.6362716,37.1217967 17.5363604,36.4908362 C17.3573051,36.3885182 17.1526704,36.3373593 16.9565622,36.3373593 C16.7263483,36.3373593 16.4876079,36.4055712 16.2914997,36.5505216 L13.3072445,38.6736186 C13.2646122,38.6991981 13.22198,38.7162511 13.1793478,38.7162511 C13.145242,38.7162511 13.0770305,38.7077246 13.0173454,38.6480391 L10.4764652,36.1071439 C10.3997272,36.0304055 10.3912008,35.9110346 10.4508859,35.8172431 L12.548391,32.8756027 C12.8127107,32.500437 12.8297636,32.0059003 12.5995496,31.6136816 C11.9344871,30.5052374 11.4229005,29.3030018 11.0988956,28.0496071 C10.9795254,27.614756 10.6214148,27.2822227 10.1780397,27.2054842 L6.57135414,26.5915767 C6.46051037,26.5745237 6.38377238,26.4807323 6.38377238,26.3698878 L6.38377238,22.7802339 C6.38377238,22.6693895 6.46051037,22.575598 6.57135414,22.558545 L10.1268811,21.9616905 C10.5787826,21.884952 10.9454196,21.5524188 11.0562634,21.1090411 C11.3717418,19.8556465 11.8577491,18.6448843 12.5142852,17.5279136 C12.7444992,17.1356949 12.7189199,16.6496847 12.4546001,16.2830455 L10.3315157,13.2987726 C10.2718306,13.2135077 10.280357,13.0856103 10.357095,13.0088718 L12.8979752,10.4679766 C12.9576603,10.4082912 13.0173454,10.3997647 13.0599776,10.3997647 C13.1111363,10.3997647 13.1537685,10.4168177 13.1878742,10.4423971 L16.1294972,12.5399146 C16.5046607,12.804236 16.9991945,12.821289 17.3914109,12.5910736 C18.4998485,11.9260071 19.702077,11.4144174 20.9554642,11.0904107 C21.3903128,10.9710398 21.7228441,10.612927 21.7995821,10.1695493 L22.413486,6.56284239 C22.4305389,6.45199797 22.5243298,6.37525953 22.6351736,6.37525953 L26.2248063,6.37525953 C26.33565,6.37525953 26.4294409,6.45199797 26.4464938,6.56284239 L27.0433448,10.1183904 C27.1200828,10.5702945 27.4526141,10.9369338 27.8959892,11.0477782 C29.1834821,11.371785 30.41129,11.8748481 31.5538334,12.5484411 C31.9460498,12.7786565 32.4320571,12.7616035 32.8072206,12.4972822 L35.7488436,10.3827117 C35.7914758,10.3571322 35.834108,10.3400792 35.8767402,10.3400792 C35.910846,10.3400792 35.9790576,10.3486057 36.0387427,10.4082912 L38.5796228,12.9491864 C38.6563608,13.0259248 38.6648872,13.1452957 38.6052021,13.2390872 L36.4991706,16.1977806 C36.2348509,16.5644198 36.217798,17.0589564 36.4480119,17.4511752 C37.1130745,18.5681459 37.6076082,19.7703815 37.9316131,21.0237761 C38.0424569,21.4671538 38.4090939,21.7996871 38.852469,21.867899 L42.4335752,22.4732801 C42.544419,22.4903331 42.621157,22.5841245 42.621157,22.6949689 L42.621157,26.2846229 L42.6126305,26.2846229 Z"
            id="Shape"></path>
          <path
            d="M25,16.3265306 C20.2140585,16.3265306 16.3265306,20.2140585 16.3265306,25 C16.3265306,29.7859415 20.2140585,33.6734694 25,33.6734694 C29.7859415,33.6734694 33.6734694,29.7859415 33.6734694,25 C33.6734694,20.2140585 29.7859415,16.3265306 25,16.3265306 Z M25,31.4064445 C21.4651204,31.4064445 18.5935555,28.5348796 18.5935555,25 C18.5935555,21.4651204 21.4651204,18.5935555 25,18.5935555 C28.5348796,18.5935555 31.4064445,21.4651204 31.4064445,25 C31.4064445,28.5348796 28.5348796,31.4064445 25,31.4064445 Z"
            id="Shape"></path>
        </g>
      </g>
    </g>
  </g>
</svg>
