<?xml version="1.0" encoding="UTF-8"?>
<svg width="53px" height="48px" viewBox="0 0 53 48" version="1.1" xmlns="http://www.w3.org/2000/svg">
  <!-- Generator: Sketch 48.2 (47327) - http://www.bohemiancoding.com/sketch -->
  <title>ic_ambulance</title>
  <desc>Created with Sketch.</desc>
  <defs></defs>
  <g id="accueil_menu" stroke="none" stroke-width="1" fill="none" fill-rule="evenodd"
     transform="translate(-61.000000, -870.000000)">
    <g id="menu" transform="translate(-51.000000, -199.000000)" fill="#4A4A4A" fill-rule="nonzero">
      <g id="icons" transform="translate(112.000000, 714.000000)">
        <g id="ic_ambulance" transform="translate(0.000000, 355.000000)">
          <path
            d="M33.2207377,7.82647154 C32.7134706,7.31850407 32.7134706,6.49482927 33.2207377,5.98686179 L35.5009069,3.7036748 C36.008174,3.1958374 36.8308431,3.19570732 37.3379804,3.7036748 C37.8452475,4.21164228 37.8452475,5.03531707 37.3379804,5.54328455 L35.0578113,7.82647154 C34.8042426,8.08039024 34.4716936,8.20747967 34.1392745,8.20747967 C33.8068554,8.20747967 33.4743064,8.08052033 33.2207377,7.82647154 Z M23.0308382,7.82647154 C23.2845368,8.08052033 23.6169559,8.20747967 23.949375,8.20747967 C24.2817941,8.20747967 24.6143431,8.08039024 24.8679118,7.82647154 C25.3751789,7.31850407 25.3753088,6.49482927 24.8679118,5.98686179 L22.5880025,3.7036748 C22.0808652,3.19570732 21.2581961,3.19570732 20.7509289,3.7036748 C20.2436618,4.21164228 20.2435319,5.03531707 20.7509289,5.54328455 L23.0308382,7.82647154 Z M29.1991029,5.92429268 C29.9165515,5.92429268 30.4981225,5.3419187 30.4981225,4.62347967 L30.4981225,1.39447154 C30.4981225,0.67603252 29.9165515,0.0936585366 29.1991029,0.0936585366 C28.4816544,0.0936585366 27.9000833,0.67603252 27.9000833,1.39447154 L27.9000833,4.62347967 C27.9000833,5.3419187 28.4816544,5.92429268 29.1991029,5.92429268 Z M41.5774608,27.0409106 C41.8586985,27.4376585 41.8953309,27.9585041 41.6722892,28.3907642 C41.4493775,28.8231545 41.0040735,29.0946341 40.5181103,29.0946341 L28.3673407,29.0946341 C27.6498922,29.0946341 27.0683211,28.5122602 27.0683211,27.7938211 L27.0683211,20.8504715 C27.0683211,20.1320325 27.6498922,19.5496585 28.3673407,19.5496585 L35.5966446,19.5496585 C36.017527,19.5496585 36.412299,19.7538862 36.6559951,20.097561 L41.5774608,27.0409106 Z M38.0032083,26.4930081 L34.9258309,22.1512846 L29.6664902,22.1512846 L29.6664902,26.4930081 L38.0032083,26.4930081 Z M17.8064412,22.9402276 L15.5575784,22.9402276 L15.5575784,20.6882602 C15.5575784,19.9698211 14.9760074,19.3874472 14.2585588,19.3874472 C13.5411103,19.3874472 12.9595392,19.9698211 12.9595392,20.6882602 L12.9595392,22.9402276 L10.7106765,22.9402276 C9.99322794,22.9402276 9.41165686,23.5226016 9.41165686,24.2410407 C9.41165686,24.9594797 9.99322794,25.5418537 10.7106765,25.5418537 L12.9595392,25.5418537 L12.9595392,27.7939512 C12.9595392,28.5123902 13.5411103,29.0947642 14.2585588,29.0947642 C14.9760074,29.0947642 15.5575784,28.5123902 15.5575784,27.7939512 L15.5575784,25.5418537 L17.8064412,25.5418537 C18.5238897,25.5418537 19.1054608,24.9594797 19.1054608,24.2410407 C19.1054608,23.5226016 18.5238897,22.9402276 17.8064412,22.9402276 Z M46.5356887,41.6750569 C46.2938113,43.0714797 45.6695025,44.3384715 44.7752574,45.363252 L51.6290147,45.363252 C52.3464632,45.363252 52.9280343,45.945626 52.9280343,46.664065 C52.9280343,47.3825041 52.3464632,47.964878 51.6290147,47.964878 L1.37864951,47.964878 C0.66120098,47.964878 0.079629902,47.3825041 0.079629902,46.664065 C0.079629902,45.945626 0.66120098,45.363252 1.37864951,45.363252 L8.23201716,45.363252 C7.33777206,44.3386016 6.71346324,43.0713496 6.47145588,41.6750569 L1.29901961,41.6750569 C0.581571078,41.6750569 0,41.0926829 0,40.3742439 L0,15.2135285 C0,14.4950894 0.581571078,13.9127154 1.29901961,13.9127154 L24.8593382,13.9127154 L24.8593382,12.1930407 C24.8593382,9.81047154 26.7951373,7.872 29.1745515,7.872 L29.2240441,7.872 C31.6031985,7.872 33.5387377,9.81034146 33.5387377,12.1930407 L33.5387377,13.9127154 L39.0665858,13.9127154 C39.4874681,13.9127154 39.8822402,14.1169431 40.1259363,14.4606179 L52.6887549,32.184065 C52.8446373,32.4040325 52.928424,32.667187 52.928424,32.9369756 L52.928424,40.374374 C52.928424,41.092813 52.3468529,41.675187 51.6294044,41.675187 L46.5356887,41.675187 L46.5356887,41.6750569 Z M27.4573775,13.9127154 L30.9406985,13.9127154 L30.9406985,12.1930407 C30.9406985,11.2450081 30.1706397,10.473626 29.2240441,10.473626 L29.1745515,10.473626 C28.2276961,10.473626 27.4573775,11.2450081 27.4573775,12.1930407 L27.4573775,13.9127154 Z M18.9228186,40.3742439 C18.9228186,37.6232846 16.6877255,35.3851057 13.9405588,35.3851057 C11.1933922,35.3851057 8.95829902,37.6232846 8.95803922,40.3742439 C8.95816912,43.1249431 11.1933922,45.363122 13.9405588,45.363122 C16.6877255,45.363252 18.9228186,43.1252033 18.9228186,40.3742439 Z M33.358174,45.363252 C32.4639289,44.3386016 31.8396201,43.0713496 31.5976127,41.6750569 L21.4095319,41.6750569 C21.1676544,43.0714797 20.5433456,44.3384715 19.6491005,45.363252 L33.358174,45.363252 Z M44.0489755,40.3742439 C44.0489755,37.6232846 41.8138824,35.3851057 39.0667157,35.3851057 C36.319549,35.3851057 34.0844559,37.6232846 34.0841961,40.3742439 C34.084326,43.1249431 36.319549,45.363122 39.0667157,45.363122 C41.8140123,45.363252 44.0489755,43.1252033 44.0489755,40.3742439 Z M46.5356887,39.0734309 L50.3305147,39.0734309 L50.3305147,33.3515447 L38.3957721,16.5142114 L2.59803922,16.5142114 L2.59803922,39.0734309 L6.47132598,39.0734309 C7.08952941,35.5054309 10.2036691,32.7834797 13.9404289,32.7834797 C17.6774485,32.7834797 20.7914583,35.505561 21.409402,39.0734309 L31.5974828,39.0734309 C32.2156863,35.5054309 35.329826,32.7834797 39.0665858,32.7834797 C42.8036054,32.7836098 45.9177451,35.5056911 46.5356887,39.0734309 Z M39.0667157,38.936065 C38.2734044,38.936065 37.6302598,39.5799675 37.6302598,40.374374 C37.6302598,41.1686504 38.2735343,41.8126829 39.0667157,41.8126829 C39.8597672,41.8126829 40.5029118,41.1686504 40.5029118,40.374374 C40.5029118,39.5799675 39.8597672,38.936065 39.0667157,38.936065 Z M13.9404289,38.936065 C13.1469877,38.936065 12.5042328,39.5799675 12.5042328,40.374374 C12.5042328,41.1686504 13.1469877,41.8126829 13.9404289,41.8126829 C14.7336103,41.8126829 15.376625,41.1686504 15.376625,40.374374 C15.3767549,39.5799675 14.7337402,38.936065 13.9404289,38.936065 Z"
            id="Shape"></path>
        </g>
      </g>
    </g>
  </g>
</svg>
