<?xml version="1.0" encoding="UTF-8"?>
<svg width="54px" height="72px" viewBox="0 0 54 72" version="1.1" xmlns="http://www.w3.org/2000/svg">
    <!-- Generator: Sketch 48.2 (47327) - http://www.bohemiancoding.com/sketch -->
    <title>ic_marker</title>
    <desc>Created with Sketch.</desc>
    <defs></defs>
    <g id="menu" stroke="none" stroke-width="1" fill="none" fill-rule="evenodd" transform="translate(-416.000000, -36.000000)">
        <g id="Points-de-dépôt" transform="translate(307.000000, 0.000000)" fill="#CBCED5" fill-rule="nonzero">
            <g id="ic_marker" transform="translate(109.000000, 36.000000)">
                <path d="M53.6939067,69.4639688 L44.2510415,49.3853906 C44.062601,48.98475 43.7360829,48.6777656 43.344513,48.5102813 L38.6467927,46.4080781 L46.7866632,32.6946094 C46.8061088,32.6617031 46.8244352,32.628375 46.8419223,32.5943438 C48.4602435,29.4191719 49.2808756,25.9880625 49.2808756,22.3969219 C49.2808756,16.3558125 46.9241813,10.6922812 42.6448912,6.44976562 C38.3663005,2.20823437 32.6979793,-0.0826875 26.6845337,0.00225 C20.8441399,0.083671875 15.3450933,2.4418125 11.2001036,6.6425625 C7.05553368,10.8430312 4.75395855,16.3897031 4.71926425,22.2612187 C4.698,25.8492656 5.54143523,29.4222656 7.15779793,32.5942031 C7.17514508,32.6280938 7.1934715,32.6615625 7.2129171,32.6944687 L15.3526477,46.4077969 L10.6277876,48.5215313 C10.2412539,48.6943594 9.92928497,49.0007813 9.74853886,49.38525 L0.305953368,69.4639688 C-0.0100725389,70.1354531 0.123248705,70.9339219 0.640025907,71.4650625 C1.15666321,71.9962031 1.94735751,72.1483594 2.62263731,71.8462969 L14.4519948,66.5523281 L26.2813523,71.8462969 C26.7389534,72.0509063 27.2614663,72.0509063 27.7190674,71.8462969 L39.5484249,66.5523281 L51.3777824,71.8462969 C51.6088912,71.9496563 51.8535699,72 52.0961503,72 C52.5621451,72 53.0205855,71.8146563 53.3603938,71.4652031 C53.8767513,70.9339219 54.0099326,70.1357344 53.6939067,69.4639688 Z M10.2786062,30.9242812 C8.91741451,28.2338437 8.23625907,25.3267031 8.2543057,22.2824531 C8.31418135,12.097125 16.6041606,3.69604687 26.7337772,3.555 C31.7932694,3.48665625 36.5633161,5.41110937 40.1628497,8.97975 C43.7635026,12.5492344 45.7462539,17.3141719 45.7462539,22.3970625 C45.7462539,25.4006719 45.0650984,28.2691406 43.7215337,30.9242812 L28.5178756,56.5388437 C28.0536995,57.3207187 27.3018964,57.4050937 27.0001399,57.4050937 C26.6982435,57.4050937 25.9464404,57.3207187 25.4824041,56.5388437 L10.2786062,30.9242812 Z M40.2669326,62.9846719 C39.8093316,62.7800625 39.2868187,62.7800625 38.8292176,62.9846719 L26.9998601,68.2786406 L15.1705026,62.9846719 C14.7129016,62.7800625 14.1903886,62.7800625 13.7327876,62.9846719 L5.53793782,66.6521719 L12.6639793,51.4999687 L17.1767565,49.4811562 L22.4463731,58.3592344 C23.4122176,59.9865469 25.1144767,60.958125 26.9995803,60.958125 C28.8846839,60.958125 30.586943,59.9865469 31.5527876,58.359375 L36.8224041,49.4812969 L41.335601,51.5008125 L48.4612228,66.6523125 L40.2669326,62.9846719 Z" id="Shape"></path>
                <path d="M27.0005596,14.2884844 C22.5526943,14.2884844 18.9342746,17.92575 18.9342746,22.3966406 C18.9342746,26.8675312 22.5526943,30.5047969 27.0005596,30.5047969 C31.448285,30.5049375 35.0667047,26.8675312 35.0667047,22.3966406 C35.0667047,17.92575 31.448285,14.2884844 27.0005596,14.2884844 Z M27.0005596,26.9517656 C24.5018705,26.9519063 22.4688964,24.908625 22.4688964,22.3966406 C22.4688964,19.8849375 24.5017306,17.8415156 27.0005596,17.8415156 C29.4992487,17.8415156 31.5320829,19.8849375 31.5320829,22.3966406 C31.5320829,24.9083438 29.4992487,26.9517656 27.0005596,26.9517656 Z" id="Shape"></path>
            </g>
        </g>
    </g>
</svg>
