<?xml version="1.0" encoding="UTF-8"?>
<svg width="108px" height="108px" viewBox="0 0 108 108" version="1.1" xmlns="http://www.w3.org/2000/svg">
  <!-- Generator: Sketch 48.2 (47327) - http://www.bohemiancoding.com/sketch -->
  <title>ic_picture</title>
  <desc>Created with Sketch.</desc>
  <defs></defs>
  <g id="sinistre_ajout_1-2" stroke="none" stroke-width="1" fill="none" fill-rule="evenodd"
     transform="translate(-67.000000, -1186.000000)">
    <g id="Picture" transform="translate(56.000000, 1186.000000)">
      <g id="ic_picture" transform="translate(11.000000, 0.000000)">
        <circle id="Oval" fill="#4A4A4A" cx="54" cy="54" r="54"></circle>
        <g id="photo-camera" transform="translate(32.869565, 33.808696)" fill="#FFFFFF" fill-rule="nonzero">
          <path
            d="M22.0695652,13.3826087 C18.4126383,13.3826087 15.4486957,16.3794209 15.4486957,20.073913 C15.4486957,23.7697435 18.4126383,26.7652174 22.0695652,26.7652174 C25.7256094,26.7652174 28.6904348,23.7697435 28.6904348,20.073913 C28.6904348,16.3794209 25.7256094,13.3826087 22.0695652,13.3826087 Z M39.7252174,6.69130435 L34.4285217,6.69130435 C33.7002261,6.69130435 32.9154323,6.12031304 32.6854675,5.42174087 L31.3162717,1.26911739 C31.085424,0.570991304 30.301513,0 29.5732174,0 L14.565913,0 C13.8376174,0 13.0528237,0.570991304 12.8228588,1.26956348 L11.453663,5.42218696 C11.2228153,6.12031304 10.4389043,6.69130435 9.7106087,6.69130435 L4.41391304,6.69130435 C1.98626087,6.69130435 0,8.69869565 0,11.1521739 L0,31.226087 C0,33.6795652 1.98626087,35.6869565 4.41391304,35.6869565 L39.7252174,35.6869565 C42.1528696,35.6869565 44.1391304,33.6795652 44.1391304,31.226087 L44.1391304,11.1521739 C44.1391304,8.69869565 42.1528696,6.69130435 39.7252174,6.69130435 Z M22.0695652,31.226087 C15.9752755,31.226087 11.0347826,26.2330357 11.0347826,20.073913 C11.0347826,13.9152365 15.9752755,8.92173913 22.0695652,8.92173913 C28.1629722,8.92173913 33.1043478,13.9152365 33.1043478,20.073913 C33.1043478,26.2330357 28.1629722,31.226087 22.0695652,31.226087 Z M38.1803478,14.27166 C37.3275798,14.27166 36.6354783,13.5730878 36.6354783,12.7103557 C36.6354783,11.8485157 37.3275798,11.1490513 38.1803478,11.1490513 C39.0339986,11.1490513 39.7252174,11.8485157 39.7252174,12.7103557 C39.7252174,13.5730878 39.0335572,14.27166 38.1803478,14.27166 Z"
            id="Shape"></path>
        </g>
      </g>
    </g>
  </g>
</svg>
