<?xml version="1.0" encoding="UTF-8"?>
<svg width="55px" height="55px" viewBox="0 0 55 55" version="1.1" xmlns="http://www.w3.org/2000/svg">
  <!-- Generator: Sketch 48.2 (47327) - http://www.bohemiancoding.com/sketch -->
  <title>ic_plus</title>
  <desc>Created with Sketch.</desc>
  <defs></defs>
  <g id="accueil" stroke="none" stroke-width="1" fill="none" fill-rule="evenodd"
     transform="translate(-930.000000, -1437.000000)">
    <g id="Mes-dossiers" transform="translate(60.000000, 903.000000)" fill="#CBCED5" fill-rule="nonzero">
      <g id="ic_plus" transform="translate(870.000000, 534.000000)">
        <path
          d="M36.09375,24.0625 L30.9375,24.0625 L30.9375,18.90625 C30.9375,17.00875 29.3975,15.46875 27.5,15.46875 C25.6025,15.46875 24.0625,17.0070425 24.0625,18.90625 L24.0625,24.0625 L18.90625,24.0625 C17.00875,24.0625 15.46875,25.6007925 15.46875,27.5 C15.46875,29.3975 17.00875,30.9375 18.90625,30.9375 L24.0625,30.9375 L24.0625,36.09375 C24.0625,37.99125 25.6025,39.53125 27.5,39.53125 C29.3975,39.53125 30.9375,37.9929575 30.9375,36.09375 L30.9375,30.9375 L36.09375,30.9375 C37.99125,30.9375 39.53125,29.3975 39.53125,27.5 C39.53125,25.6025 37.99125,24.0625 36.09375,24.0625 Z M27.5,0 C12.3113725,0 0,12.3113725 0,27.5 C0,42.6886275 12.3113725,55 27.5,55 C42.6886275,55 55,42.6886275 55,27.5 C55,12.3113725 42.6886275,0 27.5,0 Z M27.5,49.84375 C15.18,49.84375 5.15625,39.82 5.15625,27.5 C5.15625,15.18 15.18,5.15625 27.5,5.15625 C39.82,5.15625 49.84375,15.18 49.84375,27.5 C49.84375,39.82 39.82,49.84375 27.5,49.84375 Z"
          id="Shape"></path>
      </g>
    </g>
  </g>
</svg>
