<?xml version="1.0" encoding="UTF-8"?>
<svg width="34px" height="40px" viewBox="0 0 34 40" version="1.1" xmlns="http://www.w3.org/2000/svg">
  <!-- Generator: Sketch 48.2 (47327) - http://www.bohemiancoding.com/sketch -->
  <title>ic_attach</title>
  <desc>Created with Sketch.</desc>
  <defs></defs>
  <g id="reclamation_ajout" stroke="none" stroke-width="1" fill="none" fill-rule="evenodd"
     transform="translate(-67.000000, -1511.000000)">
    <g id="Pièces-justificatives" transform="translate(67.000000, 1422.802632)" fill="#767E8E" fill-rule="nonzero">
      <g id="Add-attachment" transform="translate(0.000000, 88.006579)">
        <g id="ic_attach" transform="translate(0.000000, 1.047176)">
          <path
            d="M33.3508664,2.62825966 L17.6387926,2.62825966 L17.6387926,2.25864412 C17.6387926,1.01319387 16.5881613,0 15.2968664,0 L12.5716959,0 C11.2804009,0 10.2297696,1.01319387 10.2297696,2.25864412 L10.2297696,2.62825966 L6.44010138,2.62825966 C6.08725346,2.62825966 5.8013871,2.90403577 5.8013871,3.24426038 L5.8013871,8.213217 L0.649290323,8.213217 C0.296442396,8.213217 0.0105760369,8.48899311 0.0105760369,8.82921772 L0.0105760369,31.825772 C0.0105760369,31.8462474 0.0116728111,31.8667229 0.0137880184,31.8871227 C0.0146497696,31.8954338 0.0162949309,31.9034426 0.0174700461,31.9116781 C0.0191935484,31.9233892 0.0206036866,31.9351002 0.0230322581,31.9467357 C0.0249907834,31.9564823 0.0278110599,31.9659267 0.0302396313,31.9754466 C0.0328248848,31.9854199 0.0350967742,31.9953176 0.0381520737,32.0052154 C0.0411290323,32.0146597 0.0448110599,32.0237264 0.0481797235,32.0329441 C0.0517834101,32.0426907 0.0551520737,32.0525128 0.0592258065,32.0621083 C0.0629861751,32.0707216 0.0672949309,32.0790327 0.0713686636,32.0874949 C0.0761474654,32.0972415 0.0806129032,32.1071392 0.0859400922,32.1167347 C0.090483871,32.1248946 0.0955760369,32.1325257 0.10043318,32.1403834 C0.106230415,32.1497523 0.111792627,32.1592722 0.118059908,32.1684144 C0.124013825,32.1770277 0.130672811,32.185112 0.137096774,32.1934987 C0.143129032,32.2012808 0.148769585,32.2092897 0.155271889,32.2168452 C0.167728111,32.2313518 0.180889401,32.2453295 0.194599078,32.2587783 C0.195617512,32.2597605 0.196479263,32.2608938 0.197497696,32.261876 L6.66971889,38.5039361 C6.67058065,38.5047672 6.67152074,38.5054472 6.67230415,38.5061272 C6.68640553,38.519576 6.70113364,38.5324959 6.71656682,38.5447358 C6.72369585,38.5504024 6.73129493,38.5553135 6.73865899,38.5606779 C6.74805991,38.5674023 6.75714747,38.574429 6.76686175,38.5807 C6.7755576,38.5863667 6.78464516,38.5912022 6.7934977,38.5964155 C6.80242857,38.6015532 6.81120276,38.6069932 6.820447,38.6117532 C6.82953456,38.6164376 6.83901382,38.620442 6.84841475,38.6247487 C6.85797235,38.6291309 6.86729493,38.6336642 6.87708756,38.637593 C6.88617512,38.6412197 6.89557604,38.6441663 6.90482028,38.6473396 C6.91523963,38.6509663 6.92542396,38.6548196 6.936,38.6578418 C6.94540092,38.6605618 6.95480184,38.6625262 6.96428111,38.6647929 C6.97501382,38.6674373 6.9856682,38.6703084 6.9965576,38.6723484 C7.00752535,38.6744639 7.01864977,38.6756728 7.02969585,38.6771839 C7.03925346,38.6784683 7.04865438,38.6802817 7.05829032,38.6811128 C7.07920737,38.6830772 7.10028111,38.684135 7.1212765,38.684135 L25.8566083,38.684135 C26.2094562,38.684135 26.4953226,38.4083589 26.4953226,38.0681343 L26.4953226,35.3988482 L33.3507097,35.3988482 C33.7035576,35.3988482 33.989424,35.1230721 33.989424,34.7828475 L33.989424,3.24418483 C33.9895806,2.90403577 33.7037143,2.62825966 33.3508664,2.62825966 Z M11.5071982,2.25864412 C11.5071982,1.69250977 11.9846866,1.23200144 12.5716959,1.23200144 L15.2968664,1.23200144 C15.8838756,1.23200144 16.3613641,1.69250977 16.3613641,2.25864412 L16.3613641,2.62825966 L11.5071982,2.62825966 L11.5071982,2.25864412 Z M11.5071982,9.44521844 L14.6581521,9.44521844 L14.6581521,12.4841201 L11.5071982,12.4841201 L11.5071982,9.44521844 Z M14.4432627,13.7160459 C14.2488203,13.9648489 13.9409401,14.1266879 13.5937327,14.1266879 L12.5717742,14.1266879 C12.2245668,14.1266879 11.9166083,13.9647733 11.7222442,13.7160459 L14.4432627,13.7160459 Z M7.07889401,3.86018555 L10.2298479,3.86018555 L10.2298479,8.213217 L7.07889401,8.213217 L7.07889401,3.86018555 Z M6.48279724,34.782923 L6.48279724,36.5810588 L2.1912765,32.4421505 L6.44017972,32.4421505 L6.48279724,32.4421505 L6.48279724,34.782923 Z M25.2180507,34.782923 L25.218129,37.4522091 L7.76014747,37.4522091 L7.76014747,34.782923 L7.76014747,31.8261498 C7.76014747,31.4859252 7.47428111,31.2101491 7.12143318,31.2101491 L6.44017972,31.2101491 L1.28800461,31.2101491 L1.28800461,9.44521844 L6.44017972,9.44521844 L10.2298479,9.44521844 L10.2298479,12.4841201 L6.44017972,12.4841201 L5.07759447,12.4841201 C4.72474654,12.4841201 4.43888018,12.7598962 4.43888018,13.1001208 C4.43888018,13.4403454 4.72474654,13.7161215 5.07759447,13.7161215 L6.44017972,13.7161215 L10.3190783,13.7161215 C10.597894,14.6629024 11.501871,15.3587649 12.5717742,15.3587649 L13.5937327,15.3587649 C14.6636359,15.3587649 15.5676129,14.662978 15.8464286,13.7161215 L21.7691659,13.7161215 C22.1220138,13.7161215 22.4078802,13.4403454 22.4078802,13.1001208 C22.4078802,12.7598962 22.1220138,12.4841201 21.7691659,12.4841201 L15.935659,12.4841201 L15.935659,9.44521844 L25.218129,9.44521844 L25.218129,34.782923 L25.2180507,34.782923 Z M32.7122304,34.1669223 L26.4954793,34.1669223 L26.4954793,8.82921772 C26.4954793,8.48899311 26.2096129,8.213217 25.856765,8.213217 L15.9355806,8.213217 L15.9355806,5.21541735 C15.9355806,4.87519274 15.6497143,4.59941663 15.2968664,4.59941663 C14.9440184,4.59941663 14.6581521,4.87519274 14.6581521,5.21541735 L14.6581521,8.213217 L11.5071982,8.213217 L11.5071982,3.86018555 L32.7122304,3.86018555 L32.7122304,34.1669223 Z"
            id="Shape"></path>
          <path
            d="M21.7690876,17.7405638 L6.44017972,17.7405638 L5.07759447,17.7405638 C4.72474654,17.7405638 4.43888018,18.0163399 4.43888018,18.3565646 C4.43888018,18.6967892 4.72474654,18.9725653 5.07759447,18.9725653 L6.44017972,18.9725653 L21.7690876,18.9725653 C22.1219355,18.9725653 22.4078018,18.6967892 22.4078018,18.3565646 C22.4078018,18.0163399 22.1219355,17.7405638 21.7690876,17.7405638 Z"
            id="Shape"></path>
          <path
            d="M21.7690876,22.9970076 L6.44017972,22.9970076 L5.07759447,22.9970076 C4.72474654,22.9970076 4.43888018,23.2727837 4.43888018,23.6130083 C4.43888018,23.9532329 4.72474654,24.229009 5.07759447,24.229009 L6.44017972,24.229009 L21.7690876,24.229009 C22.1219355,24.229009 22.4078018,23.9532329 22.4078018,23.6130083 C22.4078018,23.2727837 22.1219355,22.9970076 21.7690876,22.9970076 Z"
            id="Shape"></path>
          <path
            d="M21.7690876,28.2534514 L6.44017972,28.2534514 L5.07759447,28.2534514 C4.72474654,28.2534514 4.43888018,28.5292275 4.43888018,28.8694521 C4.43888018,29.2096767 4.72474654,29.4854528 5.07759447,29.4854528 L6.44017972,29.4854528 L21.7690876,29.4854528 C22.1219355,29.4854528 22.4078018,29.2096767 22.4078018,28.8694521 C22.4078018,28.5292275 22.1219355,28.2534514 21.7690876,28.2534514 Z"
            id="Shape"></path>
        </g>
      </g>
    </g>
  </g>
</svg>
