<?xml version="1.0" encoding="UTF-8"?>
<svg width="55px" height="55px" viewBox="0 0 55 55" version="1.1" xmlns="http://www.w3.org/2000/svg">
  <!-- Generator: Sketch 48.2 (47327) - http://www.bohemiancoding.com/sketch -->
  <title>ic_building</title>
  <desc>Created with Sketch.</desc>
  <defs></defs>
  <g id="menu" stroke="none" stroke-width="1" fill="none" fill-rule="evenodd"
     transform="translate(-123.000000, -45.000000)">
    <g id="ic_building" transform="translate(123.000000, 45.000000)" fill="#C4C8CF" fill-rule="nonzero">
      <path
        d="M52.3191667,49.9891489 L2.492,49.9891489 C1.11533333,49.9891489 0,51.1078723 0,52.4898936 C0,53.8695745 1.11533333,54.9882979 2.492,54.9882979 L52.318,54.9882979 C53.6946667,54.9882979 54.81,53.8695745 54.81,52.4898936 C54.8088333,51.1078723 53.6935,49.9891489 52.3191667,49.9891489 Z"
        id="Shape"></path>
      <path
        d="M5.60583333,43.4909574 C4.22916667,43.4909574 3.11383333,44.6096809 3.11383333,45.9905319 C3.11383333,47.371383 4.22916667,48.4912766 5.60583333,48.4912766 L49.2041667,48.4912766 C50.5808333,48.4912766 51.6961667,47.371383 51.6961667,45.9905319 C51.6961667,44.6096809 50.5808333,43.4909574 49.2041667,43.4909574 L48.5823333,43.4909574 L48.5823333,20.9994681 L49.2041667,20.9994681 C49.8936667,20.9994681 50.449,20.4401064 50.449,19.7508511 C50.449,19.0615957 49.8913333,18.502234 49.2041667,18.502234 L5.60583333,18.502234 C4.9175,18.502234 4.361,19.0615957 4.361,19.7508511 C4.361,20.4401064 4.91866667,20.9994681 5.60583333,20.9994681 L6.22883333,20.9994681 L6.22883333,43.4897872 L5.60583333,43.4897872 L5.60583333,43.4909574 Z M43.5983333,20.9994681 L43.5983333,43.4897872 L36.1246667,43.4897872 L36.1246667,20.9994681 L43.5983333,20.9994681 Z M31.1406667,20.9994681 L31.1406667,43.4897872 L23.667,43.4897872 L23.667,20.9994681 L31.1406667,20.9994681 Z M11.2105,20.9994681 L18.6841667,20.9994681 L18.6841667,43.4897872 L11.2105,43.4897872 L11.2105,20.9994681 Z"
        id="Shape"></path>
      <path
        d="M2.492,16.2554255 L52.318,16.2554255 C52.3261667,16.2554255 52.3355,16.2554255 52.3425,16.2554255 C53.7203333,16.2554255 54.8345,15.1367021 54.8345,13.7558511 C54.8345,12.6581915 54.1298333,11.7278723 53.151,11.3908511 L28.4293333,0.23287234 C27.7795,-0.0596808511 27.0363333,-0.0596808511 26.3853333,0.23287234 L1.47,11.4774468 C0.397833333,11.9619149 -0.191333333,13.1297872 0.056,14.2812766 C0.302166667,15.432766 1.31716667,16.2554255 2.492,16.2554255 Z"
        id="Shape"></path>
    </g>
  </g>
</svg>
