<?xml version="1.0" encoding="UTF-8"?>
<svg width="51px" height="46px" viewBox="0 0 51 46" version="1.1" xmlns="http://www.w3.org/2000/svg">
  <!-- Generator: Sketch 48.2 (47327) - http://www.bohemiancoding.com/sketch -->
  <title>ic_discuss_issue</title>
  <desc>Created with Sketch.</desc>
  <defs></defs>
  <g id="accueil_menu" stroke="none" stroke-width="1" fill="none" fill-rule="evenodd"
     transform="translate(-64.000000, -691.000000)">
    <g id="menu" transform="translate(-51.000000, -199.000000)" fill="#4A4A4A" fill-rule="nonzero">
      <g id="icons" transform="translate(112.000000, 714.000000)">
        <g id="ic_discuss_issue" transform="translate(3.000000, 176.000000)">
          <path
            d="M39.0199174,10.8569728 C39.0199174,12.3852568 37.8951074,13.3147069 37.0737686,13.9967855 C36.7627107,14.255136 36.1837273,14.7265317 36.1852727,14.9026103 C36.1908926,15.5933051 35.6294711,16.1448882 34.9310661,16.1448882 C34.9275537,16.1448882 34.9240413,16.1448882 34.9205289,16.1448882 C34.2270413,16.1448882 33.6619669,15.6102598 33.6563471,14.9230393 C33.6452479,13.5684713 34.644595,12.757287 35.4476694,12.0903565 C36.0777934,11.5669849 36.4909917,11.1987069 36.4909917,10.8616979 C36.4909917,10.1794804 35.9298512,9.62442296 35.240157,9.62442296 C34.5501818,9.62442296 33.9889008,10.1794804 33.9889008,10.8616979 C33.9889008,11.5525317 33.422843,12.1124532 32.724438,12.1124532 C32.0260331,12.1124532 31.4599752,11.5525317 31.4599752,10.8616979 C31.4599752,8.80017523 33.1556198,7.12291239 35.239876,7.12291239 C37.3242727,7.12277341 39.0199174,8.79531118 39.0199174,10.8569728 Z M34.9555124,17.2994743 C34.2571074,17.2994743 33.7190083,17.8593958 33.7190083,18.5502296 L33.7190083,18.5598187 C33.7190083,19.2506526 34.2572479,19.8058489 34.9555124,19.8058489 C35.6537769,19.8058489 36.2199752,19.2410634 36.2199752,18.5502296 C36.2199752,17.8593958 35.6539174,17.2994743 34.9555124,17.2994743 Z M9.46829752,26.0120967 C8.76989256,26.0120967 8.20383471,26.5720181 8.20383471,27.262852 C8.20383471,27.9536858 8.76989256,28.5136073 9.46829752,28.5136073 L9.57366942,28.5136073 C10.2720744,28.5136073 10.8381322,27.9536858 10.8381322,27.262852 C10.8381322,26.5720181 10.2720744,26.0120967 9.57366942,26.0120967 L9.46829752,26.0120967 Z M13.8628678,26.0120967 C13.1644628,26.0120967 12.598405,26.5720181 12.598405,27.262852 C12.598405,27.9536858 13.1644628,28.5136073 13.8628678,28.5136073 L13.9680992,28.5136073 C14.6665041,28.5136073 15.232562,27.9536858 15.232562,27.262852 C15.232562,26.5720181 14.6665041,26.0120967 13.9680992,26.0120967 L13.8628678,26.0120967 Z M51,6.03489426 L51,20.1129789 C51,23.4462417 48.2979835,26.1510695 44.9281901,26.1510695 L28.5299339,26.1510695 C28.2093223,26.1510695 27.9453306,26.1492628 27.7244711,26.1446767 C27.4930744,26.1399517 27.232595,26.138145 27.1310165,26.1492628 C27.0252231,26.2187492 26.7658678,26.4537523 26.5159256,26.6815287 C26.416876,26.7717221 26.3047603,26.8709486 26.1837934,26.9801813 L21.5443388,31.1629849 C21.1742727,31.4969366 20.6267603,31.5833776 20.1684628,31.3835347 C19.7101653,31.1835529 19.3884298,30.7346707 19.3884298,30.2392326 L19.3884298,16.978864 L6.14247934,16.978864 C4.16682645,16.978864 2.52892562,18.5802477 2.52892562,20.5342054 L2.52892562,34.61229 C2.52892562,36.5663867 4.16696694,38.1027311 6.14247934,38.1027311 L24.4594876,38.1027311 C24.7749008,38.1027311 25.0699421,38.2460121 25.3028843,38.4564169 L29.0826446,41.9034985 L29.0826446,30.0159033 C29.0826446,29.3250695 29.6487025,28.765148 30.3471074,28.765148 C31.0455124,28.765148 31.6115702,29.3250695 31.6115702,30.0159033 L31.6115702,44.7384048 C31.6115702,45.2338429 31.3249587,45.6760544 30.8665207,45.8760363 C30.702562,45.9476073 30.5379008,45.9758187 30.3655124,45.9758187 C30.0558595,45.9758187 29.7504215,45.8500483 29.512843,45.6354743 L23.9692975,40.6041027 L6.14247934,40.6041027 C2.77254545,40.6041027 0,37.9455529 0,34.6121511 L0,20.5342054 C0,17.2009426 2.77254545,14.4773535 6.14247934,14.4773535 L19.3884298,14.4773535 L19.3884298,6.03489426 C19.3884298,2.70149245 22.1821901,0.0241812689 25.552124,0.0241812689 L44.9283306,0.0241812689 C48.2979835,0.0241812689 51,2.70149245 51,6.03489426 Z M48.4710744,6.03489426 C48.4710744,4.08079758 46.903562,2.52569184 44.9281901,2.52569184 L25.552124,2.52569184 C23.5766116,2.52569184 21.9173554,4.08079758 21.9173554,6.03489426 L21.9173554,15.7397825 L21.9173554,27.4043263 L24.4596281,25.1317039 C24.5773636,25.0253897 24.7092893,24.9281088 24.8055289,24.8402779 C25.9664463,23.782139 26.2634545,23.6130091 27.777719,23.643861 C27.9842479,23.6481692 28.2302562,23.6496979 28.5299339,23.6496979 L44.9281901,23.6496979 C46.903562,23.6496979 48.4710744,22.0670755 48.4710744,20.1131178 L48.4710744,6.03489426 Z"
            id="Shape"></path>
        </g>
      </g>
    </g>
  </g>
</svg>
