<?xml version="1.0" encoding="UTF-8"?>
<svg width="45px" height="40px" viewBox="0 0 45 40" version="1.1" xmlns="http://www.w3.org/2000/svg">
  <!-- Generator: Sketch 48.2 (47327) - http://www.bohemiancoding.com/sketch -->
  <title>ic_home</title>
  <desc>Created with Sketch.</desc>
  <defs></defs>
  <g id="accueil_menu" stroke="none" stroke-width="1" fill="none" fill-rule="evenodd"
     transform="translate(-64.000000, -515.000000)">
    <g id="menu" transform="translate(-51.000000, -199.000000)" fill="#4A4A4A" fill-rule="nonzero">
      <g id="icons" transform="translate(112.000000, 714.000000)">
        <g id="ic_home" transform="translate(3.000000, 0.000000)">
          <path
            d="M1.55439425,23.8131494 L5.21972279,23.8131494 L5.21972279,38.4032184 C5.21972279,39.2629885 5.92660164,39.9664368 6.79056468,39.9664368 L17.5246817,39.9664368 C18.3886448,39.9664368 19.0955236,39.2629885 19.0955236,38.4032184 L19.0955236,27.7211954 L25.6406674,27.7211954 L25.6406674,38.4032184 C25.6406674,39.2629885 26.3475462,39.9664368 27.2115092,39.9664368 L37.4219815,39.9664368 C38.2859446,39.9664368 38.9928234,39.2629885 38.9928234,38.4032184 L38.9928234,23.8131494 L43.4435729,23.8131494 C44.0719097,23.8131494 44.6478542,23.4223448 44.8834805,22.8491954 C45.1191068,22.276046 44.9881725,21.5986207 44.5431622,21.1556782 L24.0698255,0.495172414 C23.4676386,-0.104091954 22.4728337,-0.130114943 21.8706468,0.469149425 L0.481047228,21.1296552 C0.00979466119,21.5725977 -0.12113963,22.249931 0.114486653,22.8491954 C0.350112936,23.4483678 0.926057495,23.8131494 1.55439425,23.8131494 Z M22.9178439,3.80395402 L39.67346,20.6867126 L37.4218891,20.6867126 C36.5579261,20.6867126 35.8510472,21.3901609 35.8510472,22.249931 L35.8510472,36.84 L28.7822587,36.84 L28.7822587,26.157977 C28.7822587,25.2982069 28.0753799,24.5947586 27.2114168,24.5947586 L17.5246817,24.5947586 C16.6607187,24.5947586 15.9538398,25.2982069 15.9538398,26.157977 L15.9538398,36.84 L8.36140657,36.84 L8.36140657,22.249931 C8.36140657,21.3901609 7.65452772,20.6867126 6.79056468,20.6867126 L5.42919918,20.6867126 L22.9178439,3.80395402 Z"
            id="Shape"></path>
        </g>
      </g>
    </g>
  </g>
</svg>
