<?xml version="1.0" encoding="UTF-8"?>
<svg width="38px" height="38px" viewBox="0 0 38 38" version="1.1" xmlns="http://www.w3.org/2000/svg">
  <!-- Generator: Sketch 48.2 (47327) - http://www.bohemiancoding.com/sketch -->
  <title>ic_logout</title>
  <desc>Created with Sketch.</desc>
  <defs></defs>
  <g id="accueil_menu" stroke="none" stroke-width="1" fill="none" fill-rule="evenodd"
     transform="translate(-75.000000, -1166.000000)">
    <g id="menu" transform="translate(-51.000000, -199.000000)" fill="#4A4A4A" fill-rule="nonzero">
      <g id="icons" transform="translate(112.000000, 714.000000)">
        <g id="ic_logout" transform="translate(14.000000, 651.000000)">
          <path
            d="M26.8273504,28.7111111 C27.0871795,28.9709402 27.4119658,29.1008547 27.7692308,29.1008547 C28.1264957,29.1008547 28.4512821,28.9709402 28.7111111,28.7111111 L37.4803419,19.9418803 C37.5452991,19.8769231 37.6102564,19.8119658 37.642735,19.7470085 C37.642735,19.7470085 37.6752137,19.7145299 37.6752137,19.6820513 C37.7076923,19.617094 37.7401709,19.5521368 37.7726496,19.5196581 C37.7726496,19.4871795 37.7726496,19.4547009 37.8051282,19.4547009 C37.8376068,19.3897436 37.8376068,19.357265 37.8700855,19.2923077 C37.9025641,19.1948718 37.9025641,19.1299145 37.9025641,19.0324786 C37.9025641,18.9350427 37.9025641,18.8700855 37.8700855,18.7726496 C37.8700855,18.7076923 37.8376068,18.642735 37.8051282,18.6102564 C37.8051282,18.5777778 37.8051282,18.5452991 37.7726496,18.5452991 C37.7401709,18.4803419 37.7076923,18.4153846 37.6752137,18.3504274 C37.6752137,18.3504274 37.6752137,18.3179487 37.642735,18.3179487 C37.6102564,18.2529915 37.5452991,18.1880342 37.4803419,18.1230769 L28.7111111,9.35384615 C28.191453,8.83418803 27.3470085,8.83418803 26.8273504,9.35384615 C26.3076923,9.87350427 26.3076923,10.7179487 26.8273504,11.2376068 L33.3230769,17.7333333 L10.2307692,17.7333333 C9.48376068,17.7333333 8.8991453,18.3179487 8.8991453,19.0649573 C8.8991453,19.8119658 9.48376068,20.3965812 10.2307692,20.3965812 L33.3230769,20.3965812 L26.8273504,26.8923077 C26.3076923,27.3470085 26.3076923,28.191453 26.8273504,28.7111111 Z"
            id="Shape"></path>
          <path
            d="M1.46153846,37.8376068 L19,37.8376068 C19.7470085,37.8376068 20.3316239,37.2529915 20.3316239,36.5059829 L20.3316239,23.417094 C20.3316239,22.6700855 19.7470085,22.0854701 19,22.0854701 C18.2529915,22.0854701 17.6683761,22.6700855 17.6683761,23.417094 L17.6683761,35.174359 L2.79316239,35.174359 L2.79316239,2.79316239 L17.6683761,2.79316239 L17.6683761,14.5504274 C17.6683761,15.2974359 18.2529915,15.8820513 19,15.8820513 C19.7470085,15.8820513 20.3316239,15.2974359 20.3316239,14.5504274 L20.3316239,1.46153846 C20.3316239,0.714529915 19.7470085,0.12991453 19,0.12991453 L1.46153846,0.12991453 C0.714529915,0.12991453 0.12991453,0.714529915 0.12991453,1.46153846 L0.12991453,36.5059829 C0.162393162,37.2529915 0.747008547,37.8376068 1.46153846,37.8376068 Z"
            id="Shape"></path>
        </g>
      </g>
    </g>
  </g>
</svg>
