<?xml version="1.0" encoding="UTF-8"?>
<svg width="90px" height="90px" viewBox="0 0 90 90" version="1.1" xmlns="http://www.w3.org/2000/svg">
  <!-- Generator: Sketch 48.2 (47327) - http://www.bohemiancoding.com/sketch -->
  <title>ic_search</title>
  <desc>Created with Sketch.</desc>
  <defs></defs>
  <g id="sinistres_liste" stroke="none" stroke-width="1" fill="none" fill-rule="evenodd"
     transform="translate(-805.000000, -38.000000)">
    <g id="Header" transform="translate(0.000000, -206.000000)">
      <g id="ic_search" transform="translate(805.000000, 244.000000)">
        <circle id="Oval-2" fill-opacity="0.243376359" fill="#A9A9A9" cx="45" cy="45" r="45"></circle>
        <g id="magnifying-glass-search" transform="translate(26.000000, 25.000000)" fill="#8F9AA6" fill-rule="nonzero">
          <path
            d="M39.4311765,34.3612941 L29.8564706,24.4698824 C29.1698824,23.7602353 28.3117647,23.4761176 27.94,23.8389412 C27.5669412,24.1991765 26.7082353,23.9157647 26.0216471,23.2061176 L25.8847059,23.0641176 C30.17,17.428 29.7541176,9.35835294 24.6081176,4.21235294 C18.9917647,-1.404 9.88552941,-1.404 4.26988235,4.21235294 C-1.34647059,9.82870588 -1.34647059,18.9336471 4.26988235,24.55 C9.50352941,29.7843529 17.7638824,30.1349412 23.4115294,25.6141176 L23.4716471,25.6768235 C24.1569412,26.3864706 24.4122353,27.2535294 24.038,27.6143529 C23.6655294,27.9752941 23.9189412,28.8429412 24.6062353,29.5512941 L34.1757647,39.4465882 C34.8623529,40.1543529 35.9936471,40.1754118 36.704,39.4882353 L39.3896471,36.8896471 C40.0972941,36.2041176 40.1164706,35.0735294 39.4311765,34.3612941 Z M21.4477647,21.3894118 C17.5828235,25.2549412 11.2934118,25.2549412 7.42905882,21.3907059 C3.56411765,17.5257647 3.56470588,11.2356471 7.42905882,7.37141176 C11.2934118,3.50647059 17.5828235,3.50705882 21.4464706,7.372 C25.312,11.2363529 25.312,17.5251765 21.4477647,21.3894118 Z"
            id="Shape"></path>
        </g>
      </g>
    </g>
  </g>
</svg>
